STARTFONT 2.1
COMMENT 
COMMENT This file has been produced by ttf2bdf written by Subhabrata Biswas
COMMENT 
COMMENT For comments, questions, bug reports, send a mail to
COMMENT                                           subhabrata.biswas@usa.net
COMMENT 
FONT -*-Verdana-Medium-R-Normal--32-240-96-96-c-16--fontspecific
SIZE 24 96 96
FONTBOUNDINGBOX 67 38 -18 -10
STARTPROPERTIES 15
FOUNDRY "Misc"
FAMILY_NAME "Verdana"
WEIGHT_NAME "Medium"
SLANT "R"
SETWIDTH_NAME "Normal"
PIXEL_SIZE 17
POINT_SIZE 240
RESOLUTION_X 96
RESOLUTION_Y 96
SPACING "C"
CHARSET_ENCODING "fontspecific"
FONT_ASCENT 32
FONT_DESCENT 6
DEFAULT_CHAR 31
COPYRIGHT "You may wish to put your copyright here"
ENDPROPERTIES
CHARS 226
STARTCHAR C0030
ENCODING 30
SWIDTH 1000 0
DWIDTH 32 0
BBX 24 24 4 0
BITMAP
FFFFFF
FFFFFF
C00003
C00003
C00003
C00003
C00003
C00003
C00003
C00003
C00003
C00003
C00003
C00003
C00003
C00003
C00003
C00003
C00003
C00003
C00003
C00003
FFFFFF
FFFFFF
ENDCHAR
STARTCHAR C0031
ENCODING 31
SWIDTH 1000 0
DWIDTH 32 0
BBX 24 24 4 0
BITMAP
FFFFFF
FFFFFF
C00003
C00003
C00003
C00003
C00003
C00003
C00003
C00003
C00003
C00003
C00003
C00003
C00003
C00003
C00003
C00003
C00003
C00003
C00003
C00003
FFFFFF
FFFFFF
ENDCHAR
STARTCHAR C0032- 
ENCODING 32
SWIDTH 343 0
DWIDTH 11 0
BBX 1 1 0 -1
BITMAP
00
ENDCHAR
STARTCHAR C0033-!
ENCODING 33
SWIDTH 406 0
DWIDTH 13 0
BBX 3 24 5 0
BITMAP
E0
E0
E0
E0
E0
E0
E0
E0
E0
E0
E0
E0
E0
E0
E0
E0
E0
E0
00
00
00
E0
E0
E0
ENDCHAR
STARTCHAR C0034-"
ENCODING 34
SWIDTH 468 0
DWIDTH 15 0
BBX 9 9 3 16
BITMAP
E380
E380
E380
E380
E380
E380
E380
E380
4100
ENDCHAR
STARTCHAR C0035-#
ENCODING 35
SWIDTH 812 0
DWIDTH 26 0
BBX 20 24 3 0
BITMAP
006180
006180
00C300
00C300
00C300
00C300
018600
3FFFF0
3FFFF0
018600
030C00
030C00
030C00
030C00
061800
FFFFC0
FFFFC0
061800
0C3000
0C3000
0C3000
0C3000
186000
186000
ENDCHAR
STARTCHAR C0036-$
ENCODING 36
SWIDTH 625 0
DWIDTH 20 0
BBX 16 30 2 -6
BITMAP
0180
0180
0180
0180
0FF8
3FFE
7FFE
7986
E180
E180
E180
F180
7F80
3FF0
0FFC
01BE
018F
0187
0187
0187
C19E
FFFE
FFF8
3FE0
0180
0180
0180
0180
0180
0180
ENDCHAR
STARTCHAR C0037-%
ENCODING 37
SWIDTH 1062 0
DWIDTH 34 0
BBX 30 24 2 0
BITMAP
1F001C00
3F801800
71C03800
E0E03000
E0E07000
E0E06000
E0E0E000
E0E0C000
E0E1C000
E0E18000
E0E183E0
71C307F0
3F830E38
1F061C1C
00061C1C
000E1C1C
000C1C1C
001C1C1C
00181C1C
00381C1C
00301C1C
00700E38
006007F0
00E003E0
ENDCHAR
STARTCHAR C0038-&
ENCODING 38
SWIDTH 718 0
DWIDTH 23 0
BBX 22 24 2 0
BITMAP
0FC000
1FF000
387000
703800
703800
703800
703800
787000
3C7000
1FE1C0
0F81C0
1FC1C0
31E1C0
70F1C0
E079C0
E03D80
E01F80
E00700
E00780
F00FC0
7C1DE0
3FF8F0
1FF078
0FC03C
ENDCHAR
STARTCHAR C0039-'
ENCODING 39
SWIDTH 281 0
DWIDTH 9 0
BBX 3 9 3 16
BITMAP
E0
E0
E0
E0
E0
E0
E0
E0
40
ENDCHAR
STARTCHAR C0040-(
ENCODING 40
SWIDTH 468 0
DWIDTH 15 0
BBX 9 31 3 -6
BITMAP
0780
0F00
0E00
1C00
1C00
3800
3800
7000
7000
7000
F000
E000
E000
E000
E000
E000
E000
E000
E000
E000
F000
7000
7000
7000
3800
3800
1C00
1C00
0E00
0F00
0780
ENDCHAR
STARTCHAR C0041-)
ENCODING 41
SWIDTH 468 0
DWIDTH 15 0
BBX 9 31 3 -6
BITMAP
F000
7800
3800
1C00
1C00
0E00
0E00
0700
0700
0700
0780
0380
0380
0380
0380
0380
0380
0380
0380
0380
0780
0700
0700
0700
0E00
0E00
1C00
1C00
3800
7800
F000
ENDCHAR
STARTCHAR C0042-*
ENCODING 42
SWIDTH 625 0
DWIDTH 20 0
BBX 16 14 2 11
BITMAP
0180
0180
4182
F18F
799E
1FF8
07E0
07E0
1FF8
799E
F18F
4182
0180
0180
ENDCHAR
STARTCHAR C0043-+
ENCODING 43
SWIDTH 812 0
DWIDTH 26 0
BBX 21 21 3 -1
BITMAP
007000
007000
007000
007000
007000
007000
007000
007000
007000
FFFFF8
FFFFF8
FFFFF8
007000
007000
007000
007000
007000
007000
007000
007000
007000
ENDCHAR
STARTCHAR C0044-,
ENCODING 44
SWIDTH 375 0
DWIDTH 12 0
BBX 7 10 2 -6
BITMAP
1E
3C
3C
38
38
70
70
70
E0
E0
ENDCHAR
STARTCHAR C0045--
ENCODING 45
SWIDTH 468 0
DWIDTH 15 0
BBX 10 3 2 9
BITMAP
FFC0
FFC0
FFC0
ENDCHAR
STARTCHAR C0046-.
ENCODING 46
SWIDTH 375 0
DWIDTH 12 0
BBX 4 4 4 0
BITMAP
F0
F0
F0
F0
ENDCHAR
STARTCHAR C0047-/
ENCODING 47
SWIDTH 468 0
DWIDTH 15 0
BBX 14 30 0 -5
BITMAP
001C
0038
0038
0078
0070
0070
00F0
00E0
00E0
01E0
01C0
01C0
03C0
0380
0380
0700
0700
0F00
0E00
0E00
1E00
1C00
1C00
3C00
3800
3800
7000
7000
7000
E000
ENDCHAR
STARTCHAR C0048-0
ENCODING 48
SWIDTH 625 0
DWIDTH 20 0
BBX 16 24 2 0
BITMAP
07E0
1FF8
3FFC
3C3C
700E
700E
700E
E007
E007
E007
E007
E007
E007
E007
E007
E007
E007
700E
700E
700E
3C3C
3FFC
1FF8
07E0
ENDCHAR
STARTCHAR C0049-1
ENCODING 49
SWIDTH 625 0
DWIDTH 20 0
BBX 13 24 4 0
BITMAP
0300
0700
0F00
FF00
FF00
FF00
0700
0700
0700
0700
0700
0700
0700
0700
0700
0700
0700
0700
0700
0700
0700
FFF8
FFF8
FFF8
ENDCHAR
STARTCHAR C0050-2
ENCODING 50
SWIDTH 625 0
DWIDTH 20 0
BBX 15 24 3 0
BITMAP
0FC0
7FF0
7FF8
7078
403C
001C
001C
001C
001C
0038
0038
0070
00F0
01E0
03C0
0780
0F00
1E00
3C00
7800
F000
FFFE
FFFE
FFFE
ENDCHAR
STARTCHAR C0051-3
ENCODING 51
SWIDTH 625 0
DWIDTH 20 0
BBX 15 24 3 0
BITMAP
0FE0
7FF8
7FFC
703E
401E
000E
000E
000E
001C
0078
07F0
07E0
07F8
003C
001E
000E
000E
000E
000E
801E
F07C
FFF8
FFF0
1FC0
ENDCHAR
STARTCHAR C0052-4
ENCODING 52
SWIDTH 625 0
DWIDTH 20 0
BBX 17 24 1 0
BITMAP
001C00
003C00
007C00
00FC00
01FC00
01DC00
03DC00
079C00
0F1C00
1E1C00
3C1C00
381C00
781C00
F01C00
FFFF80
FFFF80
FFFF80
001C00
001C00
001C00
001C00
001C00
001C00
001C00
ENDCHAR
STARTCHAR C0053-5
ENCODING 53
SWIDTH 625 0
DWIDTH 20 0
BBX 15 24 3 0
BITMAP
7FFE
7FFE
7FFE
7000
7000
7000
7000
7000
7000
7FC0
7FF0
7FFC
607C
001E
000E
000E
000E
000E
000E
801C
F07C
FFF8
FFF0
1FC0
ENDCHAR
STARTCHAR C0054-6
ENCODING 54
SWIDTH 625 0
DWIDTH 20 0
BBX 16 24 2 0
BITMAP
00FC
07FC
0FFC
1F04
3C00
3800
7000
7000
6000
E7F0
FFFC
FFFE
F81E
E00F
E007
E007
E007
E007
7007
780E
3C1E
3FFC
1FF8
07E0
ENDCHAR
STARTCHAR C0055-7
ENCODING 55
SWIDTH 625 0
DWIDTH 20 0
BBX 16 24 2 0
BITMAP
FFFF
FFFF
FFFF
0007
0007
000E
000E
001C
003C
0038
0078
0070
00E0
00E0
01C0
01C0
0380
0380
0700
0F00
0E00
1E00
1C00
3C00
ENDCHAR
STARTCHAR C0056-8
ENCODING 56
SWIDTH 625 0
DWIDTH 20 0
BBX 16 24 2 0
BITMAP
07E0
1FF8
3FFC
3C3E
701E
700E
700E
700E
380C
3E1C
1FF8
0FF0
38FC
701E
600E
E007
E007
E007
E007
F00F
7C1E
3FFC
1FF8
07E0
ENDCHAR
STARTCHAR C0057-9
ENCODING 57
SWIDTH 625 0
DWIDTH 20 0
BBX 16 24 2 0
BITMAP
07E0
1FF8
3FFC
783C
700E
E00E
E007
E007
E007
E007
F007
781F
7FFF
3FFF
0FE7
0006
000E
000E
001C
003C
20F8
3FF0
3FE0
3F00
ENDCHAR
STARTCHAR C0058-:
ENCODING 58
SWIDTH 468 0
DWIDTH 15 0
BBX 4 18 5 0
BITMAP
F0
F0
F0
F0
00
00
00
00
00
00
00
00
00
00
F0
F0
F0
F0
ENDCHAR
STARTCHAR C0059-;
ENCODING 59
SWIDTH 468 0
DWIDTH 15 0
BBX 7 24 3 -6
BITMAP
3C
3C
3C
3C
00
00
00
00
00
00
00
00
00
00
1E
3C
3C
38
38
70
70
70
E0
E0
ENDCHAR
STARTCHAR C0060-<
ENCODING 60
SWIDTH 812 0
DWIDTH 26 0
BBX 18 18 4 1
BITMAP
000040
0001C0
000FC0
003FC0
00FE00
03F800
1FE000
7F0000
FC0000
FC0000
7F0000
1FE000
03F800
00FE00
003FC0
000FC0
0001C0
000040
ENDCHAR
STARTCHAR C0061-=
ENCODING 61
SWIDTH 812 0
DWIDTH 26 0
BBX 19 10 4 5
BITMAP
FFFFE0
FFFFE0
FFFFE0
000000
000000
000000
000000
FFFFE0
FFFFE0
FFFFE0
ENDCHAR
STARTCHAR C0062->
ENCODING 62
SWIDTH 812 0
DWIDTH 26 0
BBX 18 18 4 1
BITMAP
800000
E00000
FC0000
FF0000
1FC000
07F000
01FE00
003F80
000FC0
000FC0
003F80
01FE00
07F000
1FC000
FF0000
FC0000
E00000
800000
ENDCHAR
STARTCHAR C0063-?
ENCODING 63
SWIDTH 531 0
DWIDTH 17 0
BBX 13 24 3 0
BITMAP
3F80
FFE0
FFF0
E0F0
8078
0038
0038
0038
0038
0070
00E0
03E0
0780
0F00
0E00
0E00
0E00
0E00
0000
0000
0000
0E00
0E00
0E00
ENDCHAR
STARTCHAR C0064-@
ENCODING 64
SWIDTH 1000 0
DWIDTH 32 0
BBX 26 27 3 -3
BITMAP
003F8000
01FFF000
07C07800
0F001E00
1C000600
38000300
303EE380
70FFE180
60E1E180
61C0E0C0
C380E0C0
C380E0C0
C380E0C0
C380E0C0
C380E0C0
C380E0C0
C380E0C0
61C0E180
61E3E180
60FFFF00
307CFF00
38000000
1C000000
0E000000
07C06000
01FFE000
003FE000
ENDCHAR
STARTCHAR C0065-A
ENCODING 65
SWIDTH 687 0
DWIDTH 22 0
BBX 22 24 0 0
BITMAP
007800
00FC00
00FC00
00FC00
01CE00
01CE00
03CF00
038700
038700
070380
070380
070380
0E01C0
0E01C0
0E01C0
1FFFE0
1FFFE0
3FFFF0
380070
380070
700038
700038
700038
E0001C
ENDCHAR
STARTCHAR C0066-B
ENCODING 66
SWIDTH 687 0
DWIDTH 22 0
BBX 18 24 3 0
BITMAP
FFF000
FFFC00
FFFE00
E01F00
E00700
E00700
E00700
E00700
E00E00
E01C00
FFF800
FFFE00
FFFF00
E00780
E003C0
E001C0
E001C0
E001C0
E001C0
E003C0
E00F80
FFFF00
FFFE00
FFF800
ENDCHAR
STARTCHAR C0067-C
ENCODING 67
SWIDTH 687 0
DWIDTH 22 0
BBX 19 24 2 0
BITMAP
00FE00
07FFC0
0FFFE0
1F03E0
3C0060
780020
700000
700000
E00000
E00000
E00000
E00000
E00000
E00000
E00000
E00000
700000
700000
780020
3C0060
1F03E0
0FFFE0
07FFC0
01FE00
ENDCHAR
STARTCHAR C0068-D
ENCODING 68
SWIDTH 781 0
DWIDTH 25 0
BBX 20 24 3 0
BITMAP
FFE000
FFFC00
FFFF00
E01F80
E007C0
E001C0
E001E0
E000E0
E000F0
E00070
E00070
E00070
E00070
E00070
E00070
E00070
E000E0
E001E0
E001C0
E007C0
E01F80
FFFF00
FFFC00
FFE000
ENDCHAR
STARTCHAR C0069-E
ENCODING 69
SWIDTH 625 0
DWIDTH 20 0
BBX 15 24 3 0
BITMAP
FFFE
FFFE
FFFE
E000
E000
E000
E000
E000
E000
FFFE
FFFE
FFFE
E000
E000
E000
E000
E000
E000
E000
E000
E000
FFFE
FFFE
FFFE
ENDCHAR
STARTCHAR C0070-F
ENCODING 70
SWIDTH 562 0
DWIDTH 18 0
BBX 15 24 3 0
BITMAP
FFFE
FFFE
FFFE
E000
E000
E000
E000
E000
E000
E000
FFF8
FFF8
FFF8
E000
E000
E000
E000
E000
E000
E000
E000
E000
E000
E000
ENDCHAR
STARTCHAR C0071-G
ENCODING 71
SWIDTH 781 0
DWIDTH 25 0
BBX 21 24 2 0
BITMAP
00FF80
03FFF0
0FFFF8
1F00F8
3C0038
380008
700000
700000
E00000
E00000
E00000
E00000
E00FF8
E00FF8
E00FF8
F00038
700038
780038
780038
3E0038
1F80F8
0FFFF8
03FFE0
00FF00
ENDCHAR
STARTCHAR C0072-H
ENCODING 72
SWIDTH 750 0
DWIDTH 24 0
BBX 18 24 3 0
BITMAP
E001C0
E001C0
E001C0
E001C0
E001C0
E001C0
E001C0
E001C0
E001C0
FFFFC0
FFFFC0
FFFFC0
E001C0
E001C0
E001C0
E001C0
E001C0
E001C0
E001C0
E001C0
E001C0
E001C0
E001C0
E001C0
ENDCHAR
STARTCHAR C0073-I
ENCODING 73
SWIDTH 406 0
DWIDTH 13 0
BBX 9 24 2 0
BITMAP
FF80
FF80
FF80
1C00
1C00
1C00
1C00
1C00
1C00
1C00
1C00
1C00
1C00
1C00
1C00
1C00
1C00
1C00
1C00
1C00
1C00
FF80
FF80
FF80
ENDCHAR
STARTCHAR C0074-J
ENCODING 74
SWIDTH 468 0
DWIDTH 15 0
BBX 11 24 1 0
BITMAP
1FE0
1FE0
1FE0
00E0
00E0
00E0
00E0
00E0
00E0
00E0
00E0
00E0
00E0
00E0
00E0
00E0
00E0
00E0
00E0
01E0
83C0
FFC0
FF80
FE00
ENDCHAR
STARTCHAR C0075-K
ENCODING 75
SWIDTH 687 0
DWIDTH 22 0
BBX 19 24 3 0
BITMAP
E003E0
E007C0
E00F80
E00F00
E01E00
E03C00
E07800
E0F000
E1E000
E3C000
E78000
EF0000
FF8000
FBC000
F1E000
E0F000
E07000
E07800
E03C00
E01E00
E00F00
E00780
E003C0
E001E0
ENDCHAR
STARTCHAR C0076-L
ENCODING 76
SWIDTH 562 0
DWIDTH 18 0
BBX 15 24 3 0
BITMAP
E000
E000
E000
E000
E000
E000
E000
E000
E000
E000
E000
E000
E000
E000
E000
E000
E000
E000
E000
E000
E000
FFFE
FFFE
FFFE
ENDCHAR
STARTCHAR C0077-M
ENCODING 77
SWIDTH 843 0
DWIDTH 27 0
BBX 21 24 3 0
BITMAP
F80078
F800F8
FC00F8
FC01F8
EE01B8
EE03B8
E70338
E70738
E70638
E38E38
E38E38
E1DC38
E1DC38
E0F838
E0F838
E07038
E07038
E00038
E00038
E00038
E00038
E00038
E00038
E00038
ENDCHAR
STARTCHAR C0078-N
ENCODING 78
SWIDTH 750 0
DWIDTH 24 0
BBX 18 24 3 0
BITMAP
F801C0
FC01C0
FC01C0
FE01C0
EE01C0
E701C0
E701C0
E381C0
E381C0
E1C1C0
E1C1C0
E0E1C0
E0E1C0
E071C0
E071C0
E039C0
E039C0
E01DC0
E01DC0
E00FC0
E00FC0
E007C0
E007C0
E003C0
ENDCHAR
STARTCHAR C0079-O
ENCODING 79
SWIDTH 781 0
DWIDTH 25 0
BBX 21 24 2 0
BITMAP
01FC00
07FF00
1FFFC0
1F07C0
3C01E0
7800F0
700070
700070
E00038
E00038
E00038
E00038
E00038
E00038
E00038
E00038
700070
700070
7800F0
3C01E0
1F07C0
1FFFC0
07FF00
01FC00
ENDCHAR
STARTCHAR C0080-P
ENCODING 80
SWIDTH 593 0
DWIDTH 19 0
BBX 15 24 3 0
BITMAP
FFC0
FFF0
FFF8
E03C
E01E
E00E
E00E
E00E
E00E
E00E
E01C
E07C
FFF8
FFF0
FFC0
E000
E000
E000
E000
E000
E000
E000
E000
E000
ENDCHAR
STARTCHAR C0081-Q
ENCODING 81
SWIDTH 781 0
DWIDTH 25 0
BBX 21 30 2 -6
BITMAP
01FC00
07FF00
1FFFC0
1F07C0
3C01E0
7800F0
700070
700070
E00038
E00038
E00038
E00038
E00038
E00038
E00038
E00038
700070
700070
7800F0
3C01E0
1F07C0
1FFF80
07FF00
01FE00
000E00
000E00
000F08
0007F8
0003F8
0001F8
ENDCHAR
STARTCHAR C0082-R
ENCODING 82
SWIDTH 687 0
DWIDTH 22 0
BBX 19 24 3 0
BITMAP
FFE000
FFF800
FFFC00
E03C00
E01E00
E00E00
E00E00
E00E00
E00E00
E01C00
E03C00
FFF800
FFF000
FFE000
E0E000
E07000
E07800
E03C00
E01E00
E00E00
E00700
E00780
E003C0
E001E0
ENDCHAR
STARTCHAR C0083-S
ENCODING 83
SWIDTH 687 0
DWIDTH 22 0
BBX 18 24 2 0
BITMAP
07FC00
1FFF80
3FFF80
780780
F00080
E00000
E00000
E00000
F00000
780000
7FC000
3FFC00
07FF00
007F80
0007C0
0001C0
0001C0
0001C0
8001C0
E00380
F80F80
FFFF00
7FFE00
0FF000
ENDCHAR
STARTCHAR C0084-T
ENCODING 84
SWIDTH 625 0
DWIDTH 20 0
BBX 19 24 0 0
BITMAP
FFFFE0
FFFFE0
FFFFE0
00E000
00E000
00E000
00E000
00E000
00E000
00E000
00E000
00E000
00E000
00E000
00E000
00E000
00E000
00E000
00E000
00E000
00E000
00E000
00E000
00E000
ENDCHAR
STARTCHAR C0085-U
ENCODING 85
SWIDTH 718 0
DWIDTH 23 0
BBX 17 24 3 0
BITMAP
E00380
E00380
E00380
E00380
E00380
E00380
E00380
E00380
E00380
E00380
E00380
E00380
E00380
E00380
E00380
E00380
E00380
E00380
700700
700700
7C1F00
3FFE00
1FFC00
07F000
ENDCHAR
STARTCHAR C0086-V
ENCODING 86
SWIDTH 687 0
DWIDTH 22 0
BBX 22 24 0 0
BITMAP
E0001C
700038
700038
700038
380070
380070
3C00F0
1C00E0
1C00E0
0E01C0
0E01C0
0E01C0
070380
070380
070380
038700
038700
03CF00
01CE00
01CE00
00FC00
00FC00
00FC00
007800
ENDCHAR
STARTCHAR C0087-W
ENCODING 87
SWIDTH 1000 0
DWIDTH 32 0
BBX 30 24 1 0
BITMAP
E007801C
F007801C
70078038
7007C038
700FC038
780FC078
380CC070
380CE070
381CE070
1C1CE0F0
1C1860E0
1C1870E0
1C3870E0
0E3871C0
0E3031C0
0E3039C0
0E7039C0
07703B80
07601B80
07601F80
07E01F80
03E01F00
03C00F00
03C00F00
ENDCHAR
STARTCHAR C0088-X
ENCODING 88
SWIDTH 687 0
DWIDTH 22 0
BBX 20 24 1 0
BITMAP
F000F0
7801E0
3801C0
3C03C0
1E0780
0E0700
0F0F00
078E00
039C00
03FC00
01F800
00F000
00F000
01F800
03FC00
039C00
070E00
0F0F00
0E0700
1E0780
3C03C0
3801C0
7801E0
F000F0
ENDCHAR
STARTCHAR C0089-Y
ENCODING 89
SWIDTH 625 0
DWIDTH 20 0
BBX 19 24 0 0
BITMAP
F001E0
7001C0
7803C0
380380
1C0700
1E0F00
0E0E00
0F1E00
071C00
03B800
03B800
01F000
01F000
00E000
00E000
00E000
00E000
00E000
00E000
00E000
00E000
00E000
00E000
00E000
ENDCHAR
STARTCHAR C0090-Z
ENCODING 90
SWIDTH 687 0
DWIDTH 22 0
BBX 18 24 2 0
BITMAP
7FFFC0
7FFFC0
7FFFC0
0003C0
000780
000F00
001E00
001C00
003C00
007800
00F000
01E000
01C000
03C000
078000
0F0000
0E0000
1C0000
3C0000
780000
F00000
FFFFC0
FFFFC0
FFFFC0
ENDCHAR
STARTCHAR C0091-[
ENCODING 91
SWIDTH 468 0
DWIDTH 15 0
BBX 8 31 4 -6
BITMAP
FF
FF
E0
E0
E0
E0
E0
E0
E0
E0
E0
E0
E0
E0
E0
E0
E0
E0
E0
E0
E0
E0
E0
E0
E0
E0
E0
E0
E0
FF
FF
ENDCHAR
STARTCHAR C0092-\
ENCODING 92
SWIDTH 468 0
DWIDTH 15 0
BBX 14 30 1 -5
BITMAP
E000
7000
7000
7000
3800
3800
3C00
1C00
1C00
1E00
0E00
0E00
0700
0700
0700
0380
0380
03C0
01C0
01C0
01E0
00E0
00E0
00F0
0070
0070
0038
0038
0038
001C
ENDCHAR
STARTCHAR C0093-]
ENCODING 93
SWIDTH 468 0
DWIDTH 15 0
BBX 8 31 3 -6
BITMAP
FF
FF
07
07
07
07
07
07
07
07
07
07
07
07
07
07
07
07
07
07
07
07
07
07
07
07
07
07
07
FF
FF
ENDCHAR
STARTCHAR C0094-^
ENCODING 94
SWIDTH 812 0
DWIDTH 26 0
BBX 20 13 3 11
BITMAP
006000
00F000
01F800
01F800
039C00
070E00
060E00
0E0700
1C0380
3801C0
3801C0
7000E0
E00070
ENDCHAR
STARTCHAR C0095-_
ENCODING 95
SWIDTH 625 0
DWIDTH 20 0
BBX 20 2 0 -5
BITMAP
FFFFF0
FFFFF0
ENDCHAR
STARTCHAR C0096-`
ENCODING 96
SWIDTH 625 0
DWIDTH 20 0
BBX 7 6 5 20
BITMAP
F0
78
38
1C
1C
0E
ENDCHAR
STARTCHAR C0097-a
ENCODING 97
SWIDTH 593 0
DWIDTH 19 0
BBX 14 18 2 0
BITMAP
3FC0
7FF0
7FF8
603C
001C
001C
03FC
1FFC
7FFC
7C1C
F01C
E01C
E01C
E01C
F07C
7FFC
3FDC
1F1C
ENDCHAR
STARTCHAR C0098-b
ENCODING 98
SWIDTH 625 0
DWIDTH 20 0
BBX 15 25 3 0
BITMAP
E000
E000
E000
E000
E000
E000
E000
E3E0
EFF8
FFF8
F83C
E01C
E00E
E00E
E00E
E00E
E00E
E00E
E00E
E01C
E01C
F07C
FFF8
FFF0
E7C0
ENDCHAR
STARTCHAR C0099-c
ENCODING 99
SWIDTH 531 0
DWIDTH 17 0
BBX 14 18 2 0
BITMAP
07F0
1FFC
3FFC
7C1C
7004
7000
E000
E000
E000
E000
E000
E000
F000
7004
7C1C
3FFC
1FFC
07E0
ENDCHAR
STARTCHAR C0100-d
ENCODING 100
SWIDTH 625 0
DWIDTH 20 0
BBX 15 25 2 0
BITMAP
000E
000E
000E
000E
000E
000E
000E
07EE
1FFE
3FFE
7C1E
700E
700E
E00E
E00E
E00E
E00E
E00E
E00E
F00E
700E
783E
3FFE
1FEE
0F8E
ENDCHAR
STARTCHAR C0101-e
ENCODING 101
SWIDTH 593 0
DWIDTH 19 0
BBX 15 18 2 0
BITMAP
07E0
1FF8
3FF8
783C
701C
600E
E00E
FFFE
FFFE
FFFE
E000
E000
F000
7002
7C0E
3FFE
1FFE
07F0
ENDCHAR
STARTCHAR C0102-f
ENCODING 102
SWIDTH 343 0
DWIDTH 11 0
BBX 11 25 1 0
BITMAP
07E0
0FE0
1FE0
3C00
3800
3800
3800
FFC0
FFC0
FFC0
3800
3800
3800
3800
3800
3800
3800
3800
3800
3800
3800
3800
3800
3800
3800
ENDCHAR
STARTCHAR C0103-g
ENCODING 103
SWIDTH 625 0
DWIDTH 20 0
BBX 15 24 2 -6
BITMAP
07CE
1FFE
3FFE
7C1E
700E
700E
E00E
E00E
E00E
E00E
E00E
E00E
E00E
700E
783E
3FFE
1FEE
0F8E
000E
001C
303C
3FF8
3FF0
1FE0
ENDCHAR
STARTCHAR C0104-h
ENCODING 104
SWIDTH 625 0
DWIDTH 20 0
BBX 14 25 3 0
BITMAP
E000
E000
E000
E000
E000
E000
E000
E3E0
EFF0
FFF8
F83C
F01C
E01C
E01C
E01C
E01C
E01C
E01C
E01C
E01C
E01C
E01C
E01C
E01C
E01C
ENDCHAR
STARTCHAR C0105-i
ENCODING 105
SWIDTH 281 0
DWIDTH 9 0
BBX 3 24 3 0
BITMAP
E0
E0
E0
00
00
00
E0
E0
E0
E0
E0
E0
E0
E0
E0
E0
E0
E0
E0
E0
E0
E0
E0
E0
ENDCHAR
STARTCHAR C0106-j
ENCODING 106
SWIDTH 343 0
DWIDTH 11 0
BBX 9 30 -1 -6
BITMAP
0380
0380
0380
0000
0000
0000
3F80
3F80
3F80
0380
0380
0380
0380
0380
0380
0380
0380
0380
0380
0380
0380
0380
0380
0380
0380
0380
8780
FF00
FE00
FC00
ENDCHAR
STARTCHAR C0107-k
ENCODING 107
SWIDTH 593 0
DWIDTH 19 0
BBX 16 25 3 0
BITMAP
E000
E000
E000
E000
E000
E000
E000
E01E
E03C
E078
E0F0
E1E0
E3C0
E780
E700
EE00
FF00
FF80
F3C0
E1E0
E0F0
E078
E03C
E01E
E01F
ENDCHAR
STARTCHAR C0108-l
ENCODING 108
SWIDTH 281 0
DWIDTH 9 0
BBX 3 25 3 0
BITMAP
E0
E0
E0
E0
E0
E0
E0
E0
E0
E0
E0
E0
E0
E0
E0
E0
E0
E0
E0
E0
E0
E0
E0
E0
E0
ENDCHAR
STARTCHAR C0109-m
ENCODING 109
SWIDTH 968 0
DWIDTH 31 0
BBX 25 18 3 0
BITMAP
E3E07C00
EFF9FE00
FFFFFF00
F83F0780
F01E0380
E01C0380
E01C0380
E01C0380
E01C0380
E01C0380
E01C0380
E01C0380
E01C0380
E01C0380
E01C0380
E01C0380
E01C0380
E01C0380
ENDCHAR
STARTCHAR C0110-n
ENCODING 110
SWIDTH 625 0
DWIDTH 20 0
BBX 14 18 3 0
BITMAP
E3E0
EFF0
FFF8
F83C
F01C
E01C
E01C
E01C
E01C
E01C
E01C
E01C
E01C
E01C
E01C
E01C
E01C
E01C
ENDCHAR
STARTCHAR C0111-o
ENCODING 111
SWIDTH 593 0
DWIDTH 19 0
BBX 15 18 2 0
BITMAP
07C0
1FF0
3FF8
783C
701C
F01E
E00E
E00E
E00E
E00E
E00E
E00E
F01E
701C
783C
3FF8
1FF0
07C0
ENDCHAR
STARTCHAR C0112-p
ENCODING 112
SWIDTH 625 0
DWIDTH 20 0
BBX 15 24 3 -6
BITMAP
E3E0
EFF8
FFF8
F83C
F01C
E00E
E00E
E00E
E00E
E00E
E00E
E00E
E01C
E01C
F07C
FFF8
FFF0
E7C0
E000
E000
E000
E000
E000
E000
ENDCHAR
STARTCHAR C0113-q
ENCODING 113
SWIDTH 625 0
DWIDTH 20 0
BBX 15 24 2 -6
BITMAP
07CE
1FFE
3FFE
7C1E
700E
700E
E00E
E00E
E00E
E00E
E00E
E00E
F00E
700E
783E
3FFE
1FEE
0F8E
000E
000E
000E
000E
000E
000E
ENDCHAR
STARTCHAR C0114-r
ENCODING 114
SWIDTH 437 0
DWIDTH 14 0
BBX 11 18 3 0
BITMAP
E3E0
E7E0
FFE0
FC00
F000
E000
E000
E000
E000
E000
E000
E000
E000
E000
E000
E000
E000
E000
ENDCHAR
STARTCHAR C0115-s
ENCODING 115
SWIDTH 531 0
DWIDTH 17 0
BBX 14 18 2 0
BITMAP
0FE0
3FF8
7FF8
F018
E000
E000
F000
7E00
7FE0
1FF8
00FC
003C
001C
801C
F03C
FFF8
FFF0
1FC0
ENDCHAR
STARTCHAR C0116-t
ENCODING 116
SWIDTH 406 0
DWIDTH 13 0
BBX 11 23 1 0
BITMAP
3800
3800
3800
3800
3800
FFE0
FFE0
FFE0
3800
3800
3800
3800
3800
3800
3800
3800
3800
3800
3800
3C20
1FE0
1FE0
07E0
ENDCHAR
STARTCHAR C0117-u
ENCODING 117
SWIDTH 625 0
DWIDTH 20 0
BBX 14 18 3 0
BITMAP
E01C
E01C
E01C
E01C
E01C
E01C
E01C
E01C
E01C
E01C
E01C
E01C
E01C
F03C
F0FC
7FFC
3FDC
1F1C
ENDCHAR
STARTCHAR C0118-v
ENCODING 118
SWIDTH 593 0
DWIDTH 19 0
BBX 17 18 1 0
BITMAP
E00380
700700
700700
780700
380E00
380E00
1C1C00
1C1C00
1C1C00
0E3800
0E3800
0F3000
077000
077000
03E000
03E000
03E000
01C000
ENDCHAR
STARTCHAR C0119-w
ENCODING 119
SWIDTH 812 0
DWIDTH 26 0
BBX 24 18 1 0
BITMAP
E01807
E03C07
703C0E
703C0E
707E0E
707E0E
38660C
38E71C
38E71C
38C31C
1CC398
1DC3B8
1D81B8
0D81F8
0F81F0
0F00F0
0F00F0
0700E0
ENDCHAR
STARTCHAR C0120-x
ENCODING 120
SWIDTH 593 0
DWIDTH 19 0
BBX 17 18 1 0
BITMAP
F00780
780F00
3C0E00
1C1C00
1E3C00
0F3800
077000
03E000
03C000
03E000
03E000
077000
0E7800
1E3C00
1C1C00
381E00
780F00
F00780
ENDCHAR
STARTCHAR C0121-y
ENCODING 121
SWIDTH 593 0
DWIDTH 19 0
BBX 17 24 1 -6
BITMAP
E00380
700700
700700
780F00
380E00
380E00
1C1C00
1C1C00
0E3800
0E3800
0F3800
077000
077000
03E000
03E000
03C000
01C000
01C000
038000
038000
070000
070000
0E0000
0E0000
ENDCHAR
STARTCHAR C0122-z
ENCODING 122
SWIDTH 531 0
DWIDTH 17 0
BBX 15 18 1 0
BITMAP
FFFE
FFFE
FFFE
001E
003C
0078
00F0
01E0
03C0
0780
0F00
1E00
3C00
7800
F000
FFFE
FFFE
FFFE
ENDCHAR
STARTCHAR C0123-{
ENCODING 123
SWIDTH 625 0
DWIDTH 20 0
BBX 15 31 3 -6
BITMAP
003E
00FE
01E0
03C0
0380
0380
0380
0380
0380
0380
0380
0700
0700
1E00
F800
F800
1E00
0700
0700
0380
0380
0380
0380
0380
0380
0380
0380
01C0
01E0
00FE
003E
ENDCHAR
STARTCHAR C0124-|
ENCODING 124
SWIDTH 468 0
DWIDTH 15 0
BBX 3 31 6 -6
BITMAP
E0
E0
E0
E0
E0
E0
E0
E0
E0
E0
E0
E0
E0
E0
E0
E0
E0
E0
E0
E0
E0
E0
E0
E0
E0
E0
E0
E0
E0
E0
E0
ENDCHAR
STARTCHAR C0125-}
ENCODING 125
SWIDTH 625 0
DWIDTH 20 0
BBX 15 31 2 -6
BITMAP
F800
FE00
0F00
0780
0380
0380
0380
0380
0380
0380
0380
01C0
01C0
00F0
003E
003E
00F0
01C0
01C0
0380
0380
0380
0380
0380
0380
0380
0380
0700
0F00
FE00
F800
ENDCHAR
STARTCHAR C0126-~
ENCODING 126
SWIDTH 812 0
DWIDTH 26 0
BBX 20 8 3 6
BITMAP
1F0070
3F8070
7FC070
70E0F0
F070E0
E03FE0
E01FC0
E00F80
ENDCHAR
STARTCHAR C0127
ENCODING 127
SWIDTH 1000 0
DWIDTH 32 0
BBX 24 24 4 0
BITMAP
FFFFFF
FFFFFF
C00003
C00003
C00003
C00003
C00003
C00003
C00003
C00003
C00003
C00003
C00003
C00003
C00003
C00003
C00003
C00003
C00003
C00003
C00003
C00003
FFFFFF
FFFFFF
ENDCHAR
STARTCHAR C0128
ENCODING 128
SWIDTH 625 0
DWIDTH 20 0
BBX 19 24 0 0
BITMAP
007F80
01FFE0
03FFE0
07C0E0
0F0020
0E0000
1C0000
1C0000
3C0000
7FF800
FFF000
380000
380000
380000
7FE000
FFC000
3C0000
1C0000
1E0000
0F0020
0FC0E0
03FFE0
01FFE0
007F00
ENDCHAR
STARTCHAR C0129
ENCODING 129
SWIDTH 1000 0
DWIDTH 32 0
BBX 24 24 4 0
BITMAP
FFFFFF
FFFFFF
C00003
C00003
C00003
C00003
C00003
C00003
C00003
C00003
C00003
C00003
C00003
C00003
C00003
C00003
C00003
C00003
C00003
C00003
C00003
C00003
FFFFFF
FFFFFF
ENDCHAR
STARTCHAR C0130
ENCODING 130
SWIDTH 281 0
DWIDTH 9 0
BBX 6 9 0 -5
BITMAP
3C
38
38
70
70
70
60
E0
C0
ENDCHAR
STARTCHAR C0131
ENCODING 131
SWIDTH 625 0
DWIDTH 20 0
BBX 21 27 -1 -3
BITMAP
0001F8
0007F8
000FF8
000E08
001C00
001C00
003C00
003800
003800
003800
03FFC0
03FFC0
03FFC0
007000
007000
00F000
00E000
00E000
00E000
00E000
01E000
01C000
03C000
878000
FF8000
FF0000
FC0000
ENDCHAR
STARTCHAR C0132
ENCODING 132
SWIDTH 468 0
DWIDTH 15 0
BBX 12 9 0 -5
BITMAP
3CF0
38E0
38E0
71C0
71C0
71C0
6180
E380
C300
ENDCHAR
STARTCHAR C0133
ENCODING 133
SWIDTH 812 0
DWIDTH 26 0
BBX 21 3 3 0
BITMAP
E07038
E07038
E07038
ENDCHAR
STARTCHAR C0134
ENCODING 134
SWIDTH 625 0
DWIDTH 20 0
BBX 14 23 3 2
BITMAP
0300
0300
0300
0300
0300
0300
FFFC
FFFC
0300
0300
0300
0300
0300
0300
0300
0300
0300
0300
0300
0300
0300
0300
0300
ENDCHAR
STARTCHAR C0135
ENCODING 135
SWIDTH 625 0
DWIDTH 20 0
BBX 14 23 3 2
BITMAP
0300
0300
0300
0300
0300
0300
FFFC
FFFC
0300
0300
0300
0300
0300
0300
0300
FFFC
FFFC
0300
0300
0300
0300
0300
0300
ENDCHAR
STARTCHAR C0136
ENCODING 136
SWIDTH 625 0
DWIDTH 20 0
BBX 11 6 5 20
BITMAP
1F00
1F00
3B80
3180
71C0
E0E0
ENDCHAR
STARTCHAR C0137
ENCODING 137
SWIDTH 1531 0
DWIDTH 49 0
BBX 44 24 2 0
BITMAP
1F001C000000
3F8018000000
71C038000000
E0E030000000
E0E070000000
E0E060000000
E0E0E0000000
E0E0C0000000
E0E1C0000000
E0E180000000
E0E183E00F80
71C307F01FC0
3F830E3838E0
1F061C1C7070
00061C1C7070
000E1C1C7070
000C1C1C7070
001C1C1C7070
00181C1C7070
00381C1C7070
00301C1C7070
00700E3838E0
006007F01FC0
00E003E00F80
ENDCHAR
STARTCHAR C0138
ENCODING 138
SWIDTH 687 0
DWIDTH 22 0
BBX 18 32 2 0
BITMAP
0E0E00
071C00
031800
03B800
01F000
01F000
000000
000000
07FC00
1FFF80
3FFF80
780780
F00080
E00000
E00000
E00000
F00000
780000
7FC000
3FFC00
07FF00
007F80
0007C0
0001C0
0001C0
0001C0
8001C0
E00380
F80F80
FFFF00
7FFE00
0FF000
ENDCHAR
STARTCHAR C0139
ENCODING 139
SWIDTH 468 0
DWIDTH 15 0
BBX 9 15 3 3
BITMAP
0080
0180
0380
0F00
1E00
3C00
F000
E000
F000
3C00
1E00
0F00
0380
0180
0080
ENDCHAR
STARTCHAR C0140
ENCODING 140
SWIDTH 1062 0
DWIDTH 34 0
BBX 30 24 2 0
BITMAP
00FFFFFC
03FFFFFC
0FFFFFFC
1F81C000
3C01C000
3801C000
7001C000
7001C000
F001C000
E001FFFC
E001FFFC
E001FFFC
E001C000
E001C000
E001C000
E001C000
7001C000
7001C000
3801C000
3C01C000
1F81C000
0FFFFFFC
03FFFFFC
00FFFFFC
ENDCHAR
STARTCHAR C0141
ENCODING 141
SWIDTH 1000 0
DWIDTH 32 0
BBX 24 24 4 0
BITMAP
FFFFFF
FFFFFF
C00003
C00003
C00003
C00003
C00003
C00003
C00003
C00003
C00003
C00003
C00003
C00003
C00003
C00003
C00003
C00003
C00003
C00003
C00003
C00003
FFFFFF
FFFFFF
ENDCHAR
STARTCHAR C0142
ENCODING 142
SWIDTH 687 0
DWIDTH 22 0
BBX 18 32 2 0
BITMAP
0E0E00
071C00
031800
03B800
01F000
01F000
000000
000000
7FFFC0
7FFFC0
7FFFC0
0003C0
000780
000F00
001E00
001C00
003C00
007800
00F000
01E000
01C000
03C000
078000
0F0000
0E0000
1C0000
3C0000
780000
F00000
FFFFC0
FFFFC0
FFFFC0
ENDCHAR
STARTCHAR C0143
ENCODING 143
SWIDTH 1000 0
DWIDTH 32 0
BBX 24 24 4 0
BITMAP
FFFFFF
FFFFFF
C00003
C00003
C00003
C00003
C00003
C00003
C00003
C00003
C00003
C00003
C00003
C00003
C00003
C00003
C00003
C00003
C00003
C00003
C00003
C00003
FFFFFF
FFFFFF
ENDCHAR
STARTCHAR C0144
ENCODING 144
SWIDTH 1000 0
DWIDTH 32 0
BBX 24 24 4 0
BITMAP
FFFFFF
FFFFFF
C00003
C00003
C00003
C00003
C00003
C00003
C00003
C00003
C00003
C00003
C00003
C00003
C00003
C00003
C00003
C00003
C00003
C00003
C00003
C00003
FFFFFF
FFFFFF
ENDCHAR
STARTCHAR C0145
ENCODING 145
SWIDTH 281 0
DWIDTH 9 0
BBX 6 9 0 16
BITMAP
F0
70
70
38
38
38
18
1C
0C
ENDCHAR
STARTCHAR C0146
ENCODING 146
SWIDTH 281 0
DWIDTH 9 0
BBX 6 9 3 16
BITMAP
3C
38
38
70
70
70
60
E0
C0
ENDCHAR
STARTCHAR C0147
ENCODING 147
SWIDTH 468 0
DWIDTH 15 0
BBX 12 9 0 16
BITMAP
F3C0
71C0
71C0
38E0
38E0
38E0
1860
1C70
0C30
ENDCHAR
STARTCHAR C0148
ENCODING 148
SWIDTH 468 0
DWIDTH 15 0
BBX 12 9 2 16
BITMAP
3CF0
38E0
38E0
71C0
71C0
71C0
6180
E380
C300
ENDCHAR
STARTCHAR C0149
ENCODING 149
SWIDTH 531 0
DWIDTH 17 0
BBX 12 12 3 4
BITMAP
0F00
3FC0
7FE0
7FE0
FFF0
FFF0
FFF0
FFF0
7FE0
7FE0
3FC0
0F00
ENDCHAR
STARTCHAR C0150
ENCODING 150
SWIDTH 625 0
DWIDTH 20 0
BBX 16 3 2 8
BITMAP
FFFF
FFFF
FFFF
ENDCHAR
STARTCHAR C0151
ENCODING 151
SWIDTH 1000 0
DWIDTH 32 0
BBX 28 3 2 8
BITMAP
FFFFFFF0
FFFFFFF0
FFFFFFF0
ENDCHAR
STARTCHAR C0152
ENCODING 152
SWIDTH 625 0
DWIDTH 20 0
BBX 13 5 4 21
BITMAP
3C18
7E18
E730
C3F0
C1E0
ENDCHAR
STARTCHAR C0153
ENCODING 153
SWIDTH 968 0
DWIDTH 31 0
BBX 26 11 2 13
BITMAP
FFC783C0
FFC783C0
0C06C6C0
0C06C6C0
0C066CC0
0C066CC0
0C0638C0
0C0638C0
0C0600C0
0C0600C0
0C0600C0
ENDCHAR
STARTCHAR C0154
ENCODING 154
SWIDTH 531 0
DWIDTH 17 0
BBX 14 26 2 0
BITMAP
3838
1C70
0C60
0EE0
07C0
07C0
0000
0000
0FE0
3FF8
7FF8
F018
E000
E000
F000
7E00
7FE0
1FF8
00FC
003C
001C
801C
F03C
FFF8
FFF0
1FC0
ENDCHAR
STARTCHAR C0155
ENCODING 155
SWIDTH 468 0
DWIDTH 15 0
BBX 9 15 3 3
BITMAP
8000
C000
E000
7800
3C00
1E00
0780
0380
0780
1E00
3C00
7800
E000
C000
8000
ENDCHAR
STARTCHAR C0156
ENCODING 156
SWIDTH 968 0
DWIDTH 31 0
BBX 27 18 2 0
BITMAP
07C07E00
1FF0FF80
3FFBFF80
783F83C0
701F01C0
F01E00E0
E00E00E0
E00FFFE0
E00FFFE0
E00FFFE0
E00E0000
E00E0000
F01F0000
701F0020
783FC0E0
3FFBFFE0
1FF0FFE0
07C03F00
ENDCHAR
STARTCHAR C0157
ENCODING 157
SWIDTH 1000 0
DWIDTH 32 0
BBX 24 24 4 0
BITMAP
FFFFFF
FFFFFF
C00003
C00003
C00003
C00003
C00003
C00003
C00003
C00003
C00003
C00003
C00003
C00003
C00003
C00003
C00003
C00003
C00003
C00003
C00003
C00003
FFFFFF
FFFFFF
ENDCHAR
STARTCHAR C0158
ENCODING 158
SWIDTH 531 0
DWIDTH 17 0
BBX 15 26 1 0
BITMAP
3838
1C70
0C60
0EE0
07C0
07C0
0000
0000
FFFE
FFFE
FFFE
001E
003C
0078
00F0
01E0
03C0
0780
0F00
1E00
3C00
7800
F000
FFFE
FFFE
FFFE
ENDCHAR
STARTCHAR C0159
ENCODING 159
SWIDTH 625 0
DWIDTH 20 0
BBX 19 29 0 0
BITMAP
071C00
071C00
071C00
000000
000000
F001E0
7001C0
7803C0
380380
1C0700
1E0F00
0E0E00
0F1E00
071C00
03B800
03B800
01F000
01F000
00E000
00E000
00E000
00E000
00E000
00E000
00E000
00E000
00E000
00E000
00E000
ENDCHAR
STARTCHAR C0160
ENCODING 160
SWIDTH 343 0
DWIDTH 11 0
BBX 1 1 0 -1
BITMAP
00
ENDCHAR
STARTCHAR C0161
ENCODING 161
SWIDTH 406 0
DWIDTH 13 0
BBX 3 24 5 0
BITMAP
E0
E0
E0
00
00
00
E0
E0
E0
E0
E0
E0
E0
E0
E0
E0
E0
E0
E0
E0
E0
E0
E0
E0
ENDCHAR
STARTCHAR C0162
ENCODING 162
SWIDTH 625 0
DWIDTH 20 0
BBX 16 29 2 -6
BITMAP
00C0
00C0
00C0
00C0
00C0
03FC
0FFF
3FFF
3CC3
78C0
70C0
E0C0
E0C0
E0C0
E0C0
E0C0
E0C0
70C0
78C0
7CC3
3FFF
0FFF
03FC
00C0
00C0
00C0
00C0
00C0
00C0
ENDCHAR
STARTCHAR C0163
ENCODING 163
SWIDTH 625 0
DWIDTH 20 0
BBX 16 24 2 0
BITMAP
00FE
03FF
07FF
0F03
1E00
1C00
1C00
1C00
1C00
1C00
1C00
1C00
7FF8
7FF8
7FF8
1C00
1C00
1C00
3800
3800
E000
FFFF
FFFF
FFFF
ENDCHAR
STARTCHAR C0164
ENCODING 164
SWIDTH 625 0
DWIDTH 20 0
BBX 16 16 2 2
BITMAP
4002
E007
700E
3BDC
1FF8
0C30
1818
1818
1818
1818
0C30
1FF8
3BDC
700E
E007
4002
ENDCHAR
STARTCHAR C0165
ENCODING 165
SWIDTH 625 0
DWIDTH 20 0
BBX 17 24 2 0
BITMAP
E00380
700700
700700
380E00
380E00
1C1C00
1C1C00
0E3800
0E3800
077000
077000
03E000
03E000
01C000
01C000
7FFF00
7FFF00
01C000
01C000
7FFF00
7FFF00
01C000
01C000
01C000
ENDCHAR
STARTCHAR C0166
ENCODING 166
SWIDTH 468 0
DWIDTH 15 0
BBX 3 31 6 -6
BITMAP
E0
E0
E0
E0
E0
E0
E0
E0
E0
E0
E0
E0
E0
00
00
00
00
00
E0
E0
E0
E0
E0
E0
E0
E0
E0
E0
E0
E0
E0
ENDCHAR
STARTCHAR C0167
ENCODING 167
SWIDTH 625 0
DWIDTH 20 0
BBX 15 30 3 -6
BITMAP
07F8
3FFC
7FFC
780C
E000
E000
E000
F000
7C00
3FC0
1FF8
39FC
703E
E00E
E00E
E00E
E00E
F81C
7F38
3FF0
07F8
007C
001E
000E
000E
000E
603C
7FFC
7FF8
3FC0
ENDCHAR
STARTCHAR C0168
ENCODING 168
SWIDTH 625 0
DWIDTH 20 0
BBX 9 3 5 20
BITMAP
E380
E380
E380
ENDCHAR
STARTCHAR C0169
ENCODING 169
SWIDTH 1000 0
DWIDTH 32 0
BBX 27 27 2 -3
BITMAP
003F8000
01FFF000
03C07800
0F001E00
1C000700
18000300
301F8180
707FE1C0
60E0E0C0
61C020C0
C3C00060
C3800060
C3800060
C3800060
C3800060
C3800060
C3C00060
61C020C0
60E0E0C0
707FE1C0
301F8180
18000300
1C000700
0F001E00
03C07800
01FFF000
003F8000
ENDCHAR
STARTCHAR C0170
ENCODING 170
SWIDTH 531 0
DWIDTH 17 0
BBX 12 15 2 9
BITMAP
3F80
7FE0
60E0
0070
0070
0FF0
3FF0
7870
F070
E070
E070
E070
F1F0
7FF0
3E70
ENDCHAR
STARTCHAR C0171
ENCODING 171
SWIDTH 656 0
DWIDTH 21 0
BBX 16 15 3 3
BITMAP
0081
0183
0387
0F0E
1E1C
3C38
F0F0
E0E0
F0F0
3C38
1E1C
0F0E
0387
0183
0081
ENDCHAR
STARTCHAR C0172
ENCODING 172
SWIDTH 812 0
DWIDTH 26 0
BBX 19 12 3 0
BITMAP
FFFFE0
FFFFE0
FFFFE0
0000E0
0000E0
0000E0
0000E0
0000E0
0000E0
0000E0
0000E0
0000E0
ENDCHAR
STARTCHAR C0173
ENCODING 173
SWIDTH 468 0
DWIDTH 15 0
BBX 10 3 2 9
BITMAP
FFC0
FFC0
FFC0
ENDCHAR
STARTCHAR C0174
ENCODING 174
SWIDTH 1000 0
DWIDTH 32 0
BBX 27 27 2 -3
BITMAP
003F8000
01FFF000
03C07800
0F001E00
1C000700
18000300
30FF8180
70FFC1C0
60E1E0C0
60E0E0C0
C0E0E060
C0E0E060
C0E1C060
C0FF8060
C0FF0060
C0E78060
C0E3C060
60E1E0C0
60E0F0C0
70E079C0
30000180
18000300
1C000700
0F001E00
03C07800
01FFF000
003F8000
ENDCHAR
STARTCHAR C0175
ENCODING 175
SWIDTH 625 0
DWIDTH 20 0
BBX 20 2 0 26
BITMAP
FFFFF0
FFFFF0
ENDCHAR
STARTCHAR C0176
ENCODING 176
SWIDTH 531 0
DWIDTH 17 0
BBX 13 12 2 12
BITMAP
0F80
3FE0
7FF0
7070
E038
E038
E038
E038
78F0
7FF0
3FE0
0F80
ENDCHAR
STARTCHAR C0177
ENCODING 177
SWIDTH 812 0
DWIDTH 26 0
BBX 21 21 3 2
BITMAP
007000
007000
007000
007000
007000
007000
007000
007000
007000
FFFFF8
FFFFF8
FFFFF8
007000
007000
007000
007000
007000
007000
FFFFF8
FFFFF8
FFFFF8
ENDCHAR
STARTCHAR C0178
ENCODING 178
SWIDTH 531 0
DWIDTH 17 0
BBX 12 14 3 10
BITMAP
3F00
FFC0
E1E0
80E0
00E0
00E0
01C0
03C0
0780
0E00
3C00
7000
FFF0
FFF0
ENDCHAR
STARTCHAR C0179
ENCODING 179
SWIDTH 531 0
DWIDTH 17 0
BBX 12 14 3 10
BITMAP
3F80
FFE0
E0F0
8070
0070
00E0
1F80
1FC0
00F0
0070
8070
E0F0
FFE0
7F80
ENDCHAR
STARTCHAR C0180
ENCODING 180
SWIDTH 625 0
DWIDTH 20 0
BBX 7 6 8 20
BITMAP
1E
3C
38
70
70
E0
ENDCHAR
STARTCHAR C0181
ENCODING 181
SWIDTH 656 0
DWIDTH 21 0
BBX 15 24 3 -6
BITMAP
E00E
E00E
E00E
E00E
E00E
E00E
E00E
E00E
E00E
E00E
E00E
E00E
E00E
E00E
F83E
FFFE
EFEE
E7CE
E000
E000
E000
E000
E000
E000
ENDCHAR
STARTCHAR C0182
ENCODING 182
SWIDTH 625 0
DWIDTH 20 0
BBX 15 30 2 -6
BITMAP
0FFE
3FFE
7F86
7F86
FF86
FF86
FF86
FF86
FF86
FF86
7F86
7F86
3F86
0F86
0186
0186
0186
0186
0186
0186
0186
0186
0186
0186
0186
0186
0186
0186
0186
0186
ENDCHAR
STARTCHAR C0183
ENCODING 183
SWIDTH 375 0
DWIDTH 12 0
BBX 4 4 4 8
BITMAP
F0
F0
F0
F0
ENDCHAR
STARTCHAR C0184
ENCODING 184
SWIDTH 625 0
DWIDTH 20 0
BBX 8 6 6 -6
BITMAP
07
07
07
8F
FE
FC
ENDCHAR
STARTCHAR C0185
ENCODING 185
SWIDTH 531 0
DWIDTH 17 0
BBX 10 14 4 10
BITMAP
0E00
1E00
FE00
FE00
0E00
0E00
0E00
0E00
0E00
0E00
0E00
0E00
FFC0
FFC0
ENDCHAR
STARTCHAR C0186
ENCODING 186
SWIDTH 531 0
DWIDTH 17 0
BBX 14 15 2 9
BITMAP
0FC0
3FF0
7878
7038
E01C
E01C
E01C
E01C
E01C
E01C
E01C
7038
7878
3FF0
0FC0
ENDCHAR
STARTCHAR C0187
ENCODING 187
SWIDTH 656 0
DWIDTH 21 0
BBX 16 15 3 3
BITMAP
8100
C180
E1C0
70F0
3878
1C3C
0F0F
0707
0F0F
1C3C
3878
70F0
E1C0
C180
8100
ENDCHAR
STARTCHAR C0188
ENCODING 188
SWIDTH 1000 0
DWIDTH 32 0
BBX 27 24 3 0
BITMAP
1C00E000
1C00C000
FC01C000
FC018000
1C038000
1C030000
1C070000
1C060000
1C0E0000
1C1C0000
1C1C0700
1C380F00
1C381F00
1C703F00
00707700
00E0E700
00C1C700
01C18700
01830700
0383FFE0
0303FFE0
07000700
06000700
0E000700
ENDCHAR
STARTCHAR C0189
ENCODING 189
SWIDTH 1000 0
DWIDTH 32 0
BBX 28 24 3 0
BITMAP
1C00E000
1C00C000
FC01C000
FC018000
1C038000
1C030000
1C070000
1C060000
1C0E0000
1C1C0000
1C1C3F80
1C387FC0
1C3861E0
1C7040E0
007000E0
00E000E0
00C001C0
01C003C0
01800780
03800F00
03001C00
07007800
06007FF0
0E007FF0
ENDCHAR
STARTCHAR C0190
ENCODING 190
SWIDTH 1000 0
DWIDTH 32 0
BBX 28 24 3 0
BITMAP
7F007000
FF806000
C3C0E000
81C0C000
01C1C000
03818000
3F038000
3F830000
03C70000
01CE0000
81CE0380
C3DC0780
FF9C0F80
7E381F80
00383B80
00707380
0060E380
00E0C380
00C18380
01C1FFF0
0181FFF0
03800380
03000380
07000380
ENDCHAR
STARTCHAR C0191
ENCODING 191
SWIDTH 531 0
DWIDTH 17 0
BBX 13 24 2 0
BITMAP
0380
0380
0380
0000
0000
0000
0380
0380
0380
0380
0780
0F00
3E00
3800
7000
E000
E000
E000
E000
F008
7838
7FF8
3FF8
0FE0
ENDCHAR
STARTCHAR C0192
ENCODING 192
SWIDTH 687 0
DWIDTH 22 0
BBX 22 32 0 0
BITMAP
01E000
00F000
007000
003800
003800
001C00
000000
000000
007800
00FC00
00FC00
00FC00
01CE00
01CE00
03CF00
038700
038700
070380
070380
070380
0E01C0
0E01C0
0E01C0
1FFFE0
1FFFE0
3FFFF0
380070
380070
700038
700038
700038
E0001C
ENDCHAR
STARTCHAR C0193
ENCODING 193
SWIDTH 687 0
DWIDTH 22 0
BBX 22 32 0 0
BITMAP
000F00
001E00
001C00
003800
003800
007000
000000
000000
007800
00FC00
00FC00
00FC00
01CE00
01CE00
03CF00
038700
038700
070380
070380
070380
0E01C0
0E01C0
0E01C0
1FFFE0
1FFFE0
3FFFF0
380070
380070
700038
700038
700038
E0001C
ENDCHAR
STARTCHAR C0194
ENCODING 194
SWIDTH 687 0
DWIDTH 22 0
BBX 22 32 0 0
BITMAP
007C00
007C00
00EE00
00C600
01C700
038380
000000
000000
007800
00FC00
00FC00
00FC00
01CE00
01CE00
03CF00
038700
038700
070380
070380
070380
0E01C0
0E01C0
0E01C0
1FFFE0
1FFFE0
3FFFF0
380070
380070
700038
700038
700038
E0001C
ENDCHAR
STARTCHAR C0195
ENCODING 195
SWIDTH 687 0
DWIDTH 22 0
BBX 22 32 0 0
BITMAP
01E0C0
03F0C0
073980
061F80
060F00
000000
000000
000000
007800
00FC00
00FC00
00FC00
01CE00
01CE00
03CF00
038700
038700
070380
070380
070380
0E01C0
0E01C0
0E01C0
1FFFE0
1FFFE0
3FFFF0
380070
380070
700038
700038
700038
E0001C
ENDCHAR
STARTCHAR C0196
ENCODING 196
SWIDTH 687 0
DWIDTH 22 0
BBX 22 29 0 0
BITMAP
01C700
01C700
01C700
000000
000000
007800
00FC00
00FC00
00FC00
01CE00
01CE00
03CF00
038700
038700
070380
070380
070380
0E01C0
0E01C0
0E01C0
1FFFE0
1FFFE0
3FFFF0
380070
380070
700038
700038
700038
E0001C
ENDCHAR
STARTCHAR C0197
ENCODING 197
SWIDTH 687 0
DWIDTH 22 0
BBX 22 32 0 0
BITMAP
00FC00
01FE00
038700
060180
060180
060180
060180
038700
01FE00
00FC00
00FC00
00FC00
01CE00
01CE00
01CE00
038700
038700
078780
070380
070380
0E01C0
0E01C0
0E01C0
1FFFE0
1FFFE0
3FFFF0
380070
380070
780078
700038
700038
E0001C
ENDCHAR
STARTCHAR C0198
ENCODING 198
SWIDTH 968 0
DWIDTH 31 0
BBX 29 24 0 0
BITMAP
007FFFF8
007FFFF8
00FFFFF8
00E1C000
01C1C000
01C1C000
01C1C000
0381C000
0381C000
0381FFF8
0701FFF8
0701FFF8
0FFFC000
0FFFC000
0FFFC000
1C01C000
1C01C000
3C01C000
3801C000
3801C000
7801C000
7001FFF8
7001FFF8
E001FFF8
ENDCHAR
STARTCHAR C0199
ENCODING 199
SWIDTH 687 0
DWIDTH 22 0
BBX 19 30 2 -6
BITMAP
00FE00
07FFC0
0FFFE0
1F03E0
3C0060
780020
700000
700000
E00000
E00000
E00000
E00000
E00000
E00000
E00000
E00000
700000
700000
780020
3C0060
1F03E0
0FFFE0
07FFC0
01FE00
000E00
000E00
011E00
01FC00
01FC00
01F000
ENDCHAR
STARTCHAR C0200
ENCODING 200
SWIDTH 625 0
DWIDTH 20 0
BBX 15 32 3 0
BITMAP
1E00
0F00
0700
0380
0380
01C0
0000
0000
FFFE
FFFE
FFFE
E000
E000
E000
E000
E000
E000
FFFE
FFFE
FFFE
E000
E000
E000
E000
E000
E000
E000
E000
E000
FFFE
FFFE
FFFE
ENDCHAR
STARTCHAR C0201
ENCODING 201
SWIDTH 625 0
DWIDTH 20 0
BBX 15 32 3 0
BITMAP
00F0
01E0
01C0
0380
0380
0700
0000
0000
FFFE
FFFE
FFFE
E000
E000
E000
E000
E000
E000
FFFE
FFFE
FFFE
E000
E000
E000
E000
E000
E000
E000
E000
E000
FFFE
FFFE
FFFE
ENDCHAR
STARTCHAR C0202
ENCODING 202
SWIDTH 625 0
DWIDTH 20 0
BBX 15 32 3 0
BITMAP
07C0
07C0
0EE0
0C60
1C70
3838
0000
0000
FFFE
FFFE
FFFE
E000
E000
E000
E000
E000
E000
FFFE
FFFE
FFFE
E000
E000
E000
E000
E000
E000
E000
E000
E000
FFFE
FFFE
FFFE
ENDCHAR
STARTCHAR C0203
ENCODING 203
SWIDTH 625 0
DWIDTH 20 0
BBX 15 29 3 0
BITMAP
1C70
1C70
1C70
0000
0000
FFFE
FFFE
FFFE
E000
E000
E000
E000
E000
E000
FFFE
FFFE
FFFE
E000
E000
E000
E000
E000
E000
E000
E000
E000
FFFE
FFFE
FFFE
ENDCHAR
STARTCHAR C0204
ENCODING 204
SWIDTH 406 0
DWIDTH 13 0
BBX 9 32 2 0
BITMAP
F000
7800
3800
1C00
1C00
0E00
0000
0000
FF80
FF80
FF80
1C00
1C00
1C00
1C00
1C00
1C00
1C00
1C00
1C00
1C00
1C00
1C00
1C00
1C00
1C00
1C00
1C00
1C00
FF80
FF80
FF80
ENDCHAR
STARTCHAR C0205
ENCODING 205
SWIDTH 406 0
DWIDTH 13 0
BBX 9 32 2 0
BITMAP
0780
0F00
0E00
1C00
1C00
3800
0000
0000
FF80
FF80
FF80
1C00
1C00
1C00
1C00
1C00
1C00
1C00
1C00
1C00
1C00
1C00
1C00
1C00
1C00
1C00
1C00
1C00
1C00
FF80
FF80
FF80
ENDCHAR
STARTCHAR C0206
ENCODING 206
SWIDTH 406 0
DWIDTH 13 0
BBX 11 32 1 0
BITMAP
1F00
1F00
3B80
3180
71C0
E0E0
0000
0000
7FC0
7FC0
7FC0
0E00
0E00
0E00
0E00
0E00
0E00
0E00
0E00
0E00
0E00
0E00
0E00
0E00
0E00
0E00
0E00
0E00
0E00
7FC0
7FC0
7FC0
ENDCHAR
STARTCHAR C0207
ENCODING 207
SWIDTH 406 0
DWIDTH 13 0
BBX 9 29 2 0
BITMAP
E380
E380
E380
0000
0000
FF80
FF80
FF80
1C00
1C00
1C00
1C00
1C00
1C00
1C00
1C00
1C00
1C00
1C00
1C00
1C00
1C00
1C00
1C00
1C00
1C00
FF80
FF80
FF80
ENDCHAR
STARTCHAR C0208
ENCODING 208
SWIDTH 781 0
DWIDTH 25 0
BBX 23 24 0 0
BITMAP
1FFC00
1FFF80
1FFFE0
1C03F0
1C00F8
1C0038
1C003C
1C001C
1C001E
1C000E
FFF00E
FFF00E
FFF00E
1C000E
1C000E
1C000E
1C001C
1C001C
1C0038
1C00F8
1C03F0
1FFFE0
1FFF80
1FFC00
ENDCHAR
STARTCHAR C0209
ENCODING 209
SWIDTH 750 0
DWIDTH 24 0
BBX 18 32 3 0
BITMAP
078300
0FC300
1CE600
187E00
183C00
000000
000000
000000
F801C0
FC01C0
FC01C0
FE01C0
EE01C0
E701C0
E701C0
E381C0
E381C0
E1C1C0
E1C1C0
E0E1C0
E0E1C0
E071C0
E071C0
E039C0
E039C0
E01DC0
E01DC0
E00FC0
E00FC0
E007C0
E007C0
E003C0
ENDCHAR
STARTCHAR C0210
ENCODING 210
SWIDTH 781 0
DWIDTH 25 0
BBX 21 32 2 0
BITMAP
03C000
01E000
00E000
007000
007000
003800
000000
000000
01FC00
07FF00
1FFFC0
1F07C0
3C01E0
7800F0
700070
700070
E00038
E00038
E00038
E00038
E00038
E00038
E00038
E00038
700070
700070
7800F0
3C01E0
1F07C0
1FFFC0
07FF00
01FC00
ENDCHAR
STARTCHAR C0211
ENCODING 211
SWIDTH 781 0
DWIDTH 25 0
BBX 21 32 2 0
BITMAP
001E00
003C00
003800
007000
007000
00E000
000000
000000
01FC00
07FF00
1FFFC0
1F07C0
3C01E0
7800F0
700070
700070
E00038
E00038
E00038
E00038
E00038
E00038
E00038
E00038
700070
700070
7800F0
3C01E0
1F07C0
1FFFC0
07FF00
01FC00
ENDCHAR
STARTCHAR C0212
ENCODING 212
SWIDTH 781 0
DWIDTH 25 0
BBX 21 32 2 0
BITMAP
00F800
00F800
01DC00
018C00
038E00
070700
000000
000000
01FC00
07FF00
1FFFC0
1F07C0
3C01E0
7800F0
700070
700070
E00038
E00038
E00038
E00038
E00038
E00038
E00038
E00038
700070
700070
7800F0
3C01E0
1F07C0
1FFFC0
07FF00
01FC00
ENDCHAR
STARTCHAR C0213
ENCODING 213
SWIDTH 781 0
DWIDTH 25 0
BBX 21 32 2 0
BITMAP
03C180
07E180
0E7300
0C3F00
0C1E00
000000
000000
000000
01FC00
07FF00
1FFFC0
1F07C0
3C01E0
7800F0
700070
700070
E00038
E00038
E00038
E00038
E00038
E00038
E00038
E00038
700070
700070
7800F0
3C01E0
1F07C0
1FFFC0
07FF00
01FC00
ENDCHAR
STARTCHAR C0214
ENCODING 214
SWIDTH 781 0
DWIDTH 25 0
BBX 21 29 2 0
BITMAP
038E00
038E00
038E00
000000
000000
01FC00
07FF00
1FFFC0
1F07C0
3C01E0
7800F0
700070
700070
E00038
E00038
E00038
E00038
E00038
E00038
E00038
E00038
700070
700070
7800F0
3C01E0
1F07C0
1FFFC0
07FF00
01FC00
ENDCHAR
STARTCHAR C0215
ENCODING 215
SWIDTH 812 0
DWIDTH 26 0
BBX 17 17 5 2
BITMAP
400100
E00380
700700
380E00
1C1C00
0E3800
077000
03E000
01C000
03E000
077000
0E3800
1C1C00
380E00
700700
E00380
400100
ENDCHAR
STARTCHAR C0216
ENCODING 216
SWIDTH 781 0
DWIDTH 25 0
BBX 21 27 2 -2
BITMAP
000030
01FC60
07FF60
1FFFC0
1F07C0
3C01E0
7803F0
700670
700670
E00C38
E01838
E01838
E03038
E06038
E0C038
E0C038
E18038
730070
730070
7E00F0
3C01E0
1F07C0
1FFFC0
37FF00
31FC00
600000
C00000
ENDCHAR
STARTCHAR C0217
ENCODING 217
SWIDTH 718 0
DWIDTH 23 0
BBX 17 32 3 0
BITMAP
0F0000
078000
038000
01C000
01C000
00E000
000000
000000
E00380
E00380
E00380
E00380
E00380
E00380
E00380
E00380
E00380
E00380
E00380
E00380
E00380
E00380
E00380
E00380
E00380
E00380
700700
700700
7C1F00
3FFE00
1FFC00
07F000
ENDCHAR
STARTCHAR C0218
ENCODING 218
SWIDTH 718 0
DWIDTH 23 0
BBX 17 32 3 0
BITMAP
001E00
003C00
003800
007000
007000
00E000
000000
000000
E00380
E00380
E00380
E00380
E00380
E00380
E00380
E00380
E00380
E00380
E00380
E00380
E00380
E00380
E00380
E00380
E00380
E00380
700700
700700
7C1F00
3FFE00
1FFC00
07F000
ENDCHAR
STARTCHAR C0219
ENCODING 219
SWIDTH 718 0
DWIDTH 23 0
BBX 17 32 3 0
BITMAP
03E000
03E000
077000
063000
0E3800
1C1C00
000000
000000
E00380
E00380
E00380
E00380
E00380
E00380
E00380
E00380
E00380
E00380
E00380
E00380
E00380
E00380
E00380
E00380
E00380
E00380
700700
700700
7C1F00
3FFE00
1FFC00
07F000
ENDCHAR
STARTCHAR C0220
ENCODING 220
SWIDTH 718 0
DWIDTH 23 0
BBX 17 29 3 0
BITMAP
0E3800
0E3800
0E3800
000000
000000
E00380
E00380
E00380
E00380
E00380
E00380
E00380
E00380
E00380
E00380
E00380
E00380
E00380
E00380
E00380
E00380
E00380
E00380
700700
700700
7C1F00
3FFE00
1FFC00
07F000
ENDCHAR
STARTCHAR C0221
ENCODING 221
SWIDTH 625 0
DWIDTH 20 0
BBX 19 32 0 0
BITMAP
000F00
001E00
001C00
003800
003800
007000
000000
000000
F001E0
7001C0
7803C0
380380
1C0700
1E0F00
0E0E00
0F1E00
071C00
03B800
03B800
01F000
01F000
00E000
00E000
00E000
00E000
00E000
00E000
00E000
00E000
00E000
00E000
00E000
ENDCHAR
STARTCHAR C0222
ENCODING 222
SWIDTH 593 0
DWIDTH 19 0
BBX 15 24 3 0
BITMAP
E000
E000
E000
E000
FFC0
FFF0
FFF8
E03C
E01E
E00E
E00E
E00E
E00E
E00E
E01C
E07C
FFF8
FFF0
FFC0
E000
E000
E000
E000
E000
ENDCHAR
STARTCHAR C0223
ENCODING 223
SWIDTH 625 0
DWIDTH 20 0
BBX 15 25 3 0
BITMAP
0FE0
1FF0
3FF8
783C
701C
E01C
E01C
E038
E078
E3E0
E3C0
E3F0
E07C
E01C
E00E
E00E
E00E
E00E
E00E
E00E
E01C
E43C
E7F8
E7F0
E7E0
ENDCHAR
STARTCHAR C0224
ENCODING 224
SWIDTH 593 0
DWIDTH 19 0
BBX 14 26 2 0
BITMAP
3C00
1E00
0E00
0700
0700
0380
0000
0000
3FC0
7FF0
7FF8
603C
001C
001C
03FC
1FFC
7FFC
7C1C
F01C
E01C
E01C
E01C
F07C
7FFC
3FDC
1F1C
ENDCHAR
STARTCHAR C0225
ENCODING 225
SWIDTH 593 0
DWIDTH 19 0
BBX 14 26 2 0
BITMAP
0078
00F0
00E0
01C0
01C0
0380
0000
0000
3FC0
7FF0
7FF8
603C
001C
001C
03FC
1FFC
7FFC
7C1C
F01C
E01C
E01C
E01C
F07C
7FFC
3FDC
1F1C
ENDCHAR
STARTCHAR C0226
ENCODING 226
SWIDTH 593 0
DWIDTH 19 0
BBX 14 26 2 0
BITMAP
07C0
07C0
0EE0
0C60
1C70
3838
0000
0000
3FC0
7FF0
7FF8
603C
001C
001C
03FC
1FFC
7FFC
7C1C
F01C
E01C
E01C
E01C
F07C
7FFC
3FDC
1F1C
ENDCHAR
STARTCHAR C0227
ENCODING 227
SWIDTH 593 0
DWIDTH 19 0
BBX 14 26 2 0
BITMAP
1E0C
3F0C
7398
61F8
60F0
0000
0000
0000
3FC0
7FF0
7FF8
603C
001C
001C
03FC
1FFC
7FFC
7C1C
F01C
E01C
E01C
E01C
F07C
7FFC
3FDC
1F1C
ENDCHAR
STARTCHAR C0228
ENCODING 228
SWIDTH 593 0
DWIDTH 19 0
BBX 14 23 2 0
BITMAP
1C70
1C70
1C70
0000
0000
3FC0
7FF0
7FF8
603C
001C
001C
03FC
1FFC
7FFC
7C1C
F01C
E01C
E01C
E01C
F07C
7FFC
3FDC
1F1C
ENDCHAR
STARTCHAR C0229
ENCODING 229
SWIDTH 593 0
DWIDTH 19 0
BBX 14 31 2 0
BITMAP
07C0
0FE0
1C70
3838
3018
3018
3018
3838
1C70
0FE0
07C0
0000
0000
3FC0
7FF0
7FF8
603C
001C
001C
03FC
1FFC
7FFC
7C1C
F01C
E01C
E01C
E01C
F07C
7FFC
3FDC
1F1C
ENDCHAR
STARTCHAR C0230
ENCODING 230
SWIDTH 968 0
DWIDTH 31 0
BBX 27 18 2 0
BITMAP
0FE07E00
3FF9FF00
3FFFFF80
301F83C0
000F01C0
000F00E0
000E00E0
07FFFFE0
3FFFFFE0
7FFFFFE0
F80E0000
E00E0000
E00F0000
E00F0020
F03FC0E0
7FFBFFE0
3FE1FFE0
1F807F00
ENDCHAR
STARTCHAR C0231
ENCODING 231
SWIDTH 531 0
DWIDTH 17 0
BBX 14 24 2 -6
BITMAP
07F0
1FFC
3FFC
7C1C
7004
7000
E000
E000
E000
E000
E000
E000
F000
7004
7C1C
3FFC
1FFC
07F0
0070
0070
08F0
0FE0
0FE0
0F80
ENDCHAR
STARTCHAR C0232
ENCODING 232
SWIDTH 593 0
DWIDTH 19 0
BBX 15 26 2 0
BITMAP
3C00
1E00
0E00
0700
0700
0380
0000
0000
07E0
1FF8
3FF8
783C
701C
600E
E00E
FFFE
FFFE
FFFE
E000
E000
F000
7002
7C0E
3FFE
1FFE
07F0
ENDCHAR
STARTCHAR C0233
ENCODING 233
SWIDTH 593 0
DWIDTH 19 0
BBX 15 26 2 0
BITMAP
003C
0078
0070
00E0
00E0
01C0
0000
0000
07E0
1FF8
3FF8
783C
701C
600E
E00E
FFFE
FFFE
FFFE
E000
E000
F000
7002
7C0E
3FFE
1FFE
07F0
ENDCHAR
STARTCHAR C0234
ENCODING 234
SWIDTH 593 0
DWIDTH 19 0
BBX 15 26 2 0
BITMAP
07C0
07C0
0EE0
0C60
1C70
3838
0000
0000
07E0
1FF8
3FF8
783C
701C
600E
E00E
FFFE
FFFE
FFFE
E000
E000
F000
7002
7C0E
3FFE
1FFE
07F0
ENDCHAR
STARTCHAR C0235
ENCODING 235
SWIDTH 593 0
DWIDTH 19 0
BBX 15 23 2 0
BITMAP
1C70
1C70
1C70
0000
0000
07E0
1FF8
3FF8
783C
701C
600E
E00E
FFFE
FFFE
FFFE
E000
E000
F000
7002
7C0E
3FFE
1FFE
07F0
ENDCHAR
STARTCHAR C0236
ENCODING 236
SWIDTH 281 0
DWIDTH 9 0
BBX 7 26 0 0
BITMAP
F0
78
38
1C
1C
0E
00
00
1C
1C
1C
1C
1C
1C
1C
1C
1C
1C
1C
1C
1C
1C
1C
1C
1C
1C
ENDCHAR
STARTCHAR C0237
ENCODING 237
SWIDTH 281 0
DWIDTH 9 0
BBX 7 26 2 0
BITMAP
1E
3C
38
70
70
E0
00
00
70
70
70
70
70
70
70
70
70
70
70
70
70
70
70
70
70
70
ENDCHAR
STARTCHAR C0238
ENCODING 238
SWIDTH 281 0
DWIDTH 9 0
BBX 9 26 0 0
BITMAP
1C00
3E00
3600
7700
6300
E380
0000
0000
1C00
1C00
1C00
1C00
1C00
1C00
1C00
1C00
1C00
1C00
1C00
1C00
1C00
1C00
1C00
1C00
1C00
1C00
ENDCHAR
STARTCHAR C0239
ENCODING 239
SWIDTH 281 0
DWIDTH 9 0
BBX 9 23 0 0
BITMAP
E380
E380
E380
0000
0000
1C00
1C00
1C00
1C00
1C00
1C00
1C00
1C00
1C00
1C00
1C00
1C00
1C00
1C00
1C00
1C00
1C00
1C00
ENDCHAR
STARTCHAR C0240
ENCODING 240
SWIDTH 625 0
DWIDTH 20 0
BBX 16 24 2 0
BITMAP
3E08
0FBC
03F0
01E0
07F0
1E38
081C
001C
000E
0FEE
1FFF
3FFF
781F
F007
E007
E007
E007
E007
E00E
700E
783C
3FFC
1FF8
07E0
ENDCHAR
STARTCHAR C0241
ENCODING 241
SWIDTH 625 0
DWIDTH 20 0
BBX 14 26 3 0
BITMAP
1E0C
3F0C
7398
61F8
60F0
0000
0000
0000
E3E0
EFF0
FFF8
F83C
F01C
E01C
E01C
E01C
E01C
E01C
E01C
E01C
E01C
E01C
E01C
E01C
E01C
E01C
ENDCHAR
STARTCHAR C0242
ENCODING 242
SWIDTH 593 0
DWIDTH 19 0
BBX 15 26 2 0
BITMAP
1E00
0F00
0700
0380
0380
01C0
0000
0000
07C0
1FF0
3FF8
783C
701C
F01E
E00E
E00E
E00E
E00E
E00E
E00E
F01E
701C
783C
3FF8
1FF0
07C0
ENDCHAR
STARTCHAR C0243
ENCODING 243
SWIDTH 593 0
DWIDTH 19 0
BBX 15 26 2 0
BITMAP
00F0
01E0
01C0
0380
0380
0700
0000
0000
07C0
1FF0
3FF8
783C
701C
F01E
E00E
E00E
E00E
E00E
E00E
E00E
F01E
701C
783C
3FF8
1FF0
07C0
ENDCHAR
STARTCHAR C0244
ENCODING 244
SWIDTH 593 0
DWIDTH 19 0
BBX 15 26 2 0
BITMAP
07C0
07C0
0EE0
0C60
1C70
3838
0000
0000
07C0
1FF0
3FF8
783C
701C
F01E
E00E
E00E
E00E
E00E
E00E
E00E
F01E
701C
783C
3FF8
1FF0
07C0
ENDCHAR
STARTCHAR C0245
ENCODING 245
SWIDTH 593 0
DWIDTH 19 0
BBX 15 26 2 0
BITMAP
1E0C
3F0C
7398
61F8
60F0
0000
0000
0000
07C0
1FF0
3FF8
783C
701C
F01E
E00E
E00E
E00E
E00E
E00E
E00E
F01E
701C
783C
3FF8
1FF0
07C0
ENDCHAR
STARTCHAR C0246
ENCODING 246
SWIDTH 593 0
DWIDTH 19 0
BBX 15 23 2 0
BITMAP
1C70
1C70
1C70
0000
0000
07C0
1FF0
3FF8
783C
701C
F01E
E00E
E00E
E00E
E00E
E00E
E00E
F01E
701C
783C
3FF8
1FF0
07C0
ENDCHAR
STARTCHAR C0247
ENCODING 247
SWIDTH 812 0
DWIDTH 26 0
BBX 22 21 2 -1
BITMAP
007800
007800
007800
007800
000000
000000
000000
000000
000000
FFFFFC
FFFFFC
FFFFFC
000000
000000
000000
000000
000000
007800
007800
007800
007800
ENDCHAR
STARTCHAR C0248
ENCODING 248
SWIDTH 593 0
DWIDTH 19 0
BBX 15 21 2 -2
BITMAP
0004
07CC
1FF8
3FF8
783C
703C
F07E
E0CE
E08E
E18E
E30E
E20E
E60E
FC1E
781C
783C
3FF8
3FF0
67C0
4000
C000
ENDCHAR
STARTCHAR C0249
ENCODING 249
SWIDTH 625 0
DWIDTH 20 0
BBX 14 26 3 0
BITMAP
1E00
0F00
0700
0380
0380
01C0
0000
0000
E01C
E01C
E01C
E01C
E01C
E01C
E01C
E01C
E01C
E01C
E01C
E01C
E01C
F03C
F0FC
7FFC
3FDC
1F1C
ENDCHAR
STARTCHAR C0250
ENCODING 250
SWIDTH 625 0
DWIDTH 20 0
BBX 14 26 3 0
BITMAP
00F0
01E0
01C0
0380
0380
0700
0000
0000
E01C
E01C
E01C
E01C
E01C
E01C
E01C
E01C
E01C
E01C
E01C
E01C
E01C
F03C
F0FC
7FFC
3FDC
1F1C
ENDCHAR
STARTCHAR C0251
ENCODING 251
SWIDTH 625 0
DWIDTH 20 0
BBX 14 26 3 0
BITMAP
07C0
07C0
0EE0
0C60
1C70
3838
0000
0000
E01C
E01C
E01C
E01C
E01C
E01C
E01C
E01C
E01C
E01C
E01C
E01C
E01C
F03C
F0FC
7FFC
3FDC
1F1C
ENDCHAR
STARTCHAR C0252
ENCODING 252
SWIDTH 625 0
DWIDTH 20 0
BBX 14 23 3 0
BITMAP
1C70
1C70
1C70
0000
0000
E01C
E01C
E01C
E01C
E01C
E01C
E01C
E01C
E01C
E01C
E01C
E01C
E01C
F03C
F0FC
7FFC
3FDC
1F1C
ENDCHAR
STARTCHAR C0253
ENCODING 253
SWIDTH 593 0
DWIDTH 19 0
BBX 17 32 1 -6
BITMAP
003C00
007800
007000
00E000
00E000
01C000
000000
000000
E00380
700700
700700
780F00
380E00
380E00
1C1C00
1C1C00
0E3800
0E3800
0F3800
077000
077000
03E000
03E000
03C000
01C000
01C000
038000
038000
070000
070000
0E0000
0E0000
ENDCHAR
STARTCHAR C0254
ENCODING 254
SWIDTH 625 0
DWIDTH 20 0
BBX 15 31 3 -6
BITMAP
E000
E000
E000
E000
E000
E000
E000
E3E0
EFF8
FFF8
F83C
F01C
E00E
E00E
E00E
E00E
E00E
E00E
E00E
E01C
E01C
F07C
FFF8
FFF0
E7C0
E000
E000
E000
E000
E000
E000
ENDCHAR
STARTCHAR C0255
ENCODING 255
SWIDTH 593 0
DWIDTH 19 0
BBX 17 29 1 -6
BITMAP
0E3800
0E3800
0E3800
000000
000000
E00380
700700
700700
780F00
380E00
380E00
1C1C00
1C1C00
0E3800
0E3800
0F3800
077000
077000
03E000
03E000
03C000
01C000
01C000
038000
038000
070000
070000
0E0000
0E0000
ENDCHAR
ENDFONT
